IKResults
version=1
nRows=10
nColumns=40
inDegrees=yes

Units are S.I. units (second, meters, Newtons, ...)
Angles are in degrees.

endheader
time	pelvis_tilt	pelvis_list	pelvis_rotation	pelvis_tx	pelvis_ty	pelvis_tz	hip_flexion_r	hip_adduction_r	hip_rotation_r	knee_angle_r	knee_angle_r_beta	ankle_angle_r	subtalar_angle_r	mtp_angle_r	hip_flexion_l	hip_adduction_l	hip_rotation_l	knee_angle_l	knee_angle_l_beta	ankle_angle_l	subtalar_angle_l	mtp_angle_l	lumbar_extension	lumbar_bending	lumbar_rotation	arm_flex_r	arm_add_r	arm_rot_r	elbow_flex_r	pro_sup_r	wrist_flex_r	wrist_dev_r	arm_flex_l	arm_add_l	arm_rot_l	elbow_flex_l	pro_sup_l	wrist_flex_l	wrist_dev_l
      1.59000000	     16.80505405	      0.61682458	      1.93021388	     -0.34893833	      0.95215462	     -1.44017202	    -22.03301243	      3.23263689	    -16.16249274	    -12.29094442	     -0.21451745	     11.28141468	     -2.64385828	     -4.59467300	     -0.42825189	      0.77040011	      6.05608450	    -25.30127493	     -0.44159055	      8.75663069	      6.60441750	     -3.63933475	    -23.71343817	     -1.98832637	      2.80736222	     -2.44956574	    -11.53873694	      1.03342582	     37.59326611	     89.95437384	      0.00000000	      0.00000000	     -4.17116899	      9.40912040	     -0.16181856	     21.62085825	     89.95437384	      0.00000000	      0.00000000
      1.60000000	     16.60413192	      0.93767481	      1.93150460	     -0.34202009	      0.95109732	     -1.44026240	    -22.19567964	      2.89380126	    -16.18155347	    -12.49947037	     -0.21815691	     11.63971630	     -2.71327471	     -4.54807476	      0.11478006	      0.39894644	      6.96249851	    -23.79127682	     -0.41523611	      8.39267624	      5.73828318	     -3.69780311	    -23.49877328	     -2.33387580	      2.79711010	     -2.56107881	    -11.49202073	      0.99165777	     37.62284875	     89.95437384	      0.00000000	      0.00000000	     -4.61264193	      9.26368238	     -0.28335494	     21.36167395	     89.95437384	      0.00000000	      0.00000000
      1.61000000	     16.81023660	      1.33266449	      1.60621640	     -0.33471416	      0.95061879	     -1.44011757	    -22.82783669	      2.33757601	    -16.10994341	    -12.71690965	     -0.22195194	     12.04115260	     -2.51732652	     -4.49591061	      0.07127797	      0.05214848	      8.82135947	    -22.22200770	     -0.38784720	      7.65462614	      4.07213163	     -3.97207269	    -23.70022550	     -2.83910903	      3.08143403	     -2.75856993	    -11.48382270	      0.83632727	     37.77877504	     89.95437384	      0.00000000	      0.00000000	     -5.05004637	      9.08210569	     -0.38404590	     21.18323755	     89.95437384	      0.00000000	      0.00000000
      1.62000000	     16.69839470	      1.64603935	      1.51878984	     -0.32734697	      0.94957072	     -1.44011732	    -23.13739243	      1.98640967	    -16.02896313	    -12.88054449	     -0.22480791	     12.38515320	     -2.55308120	     -4.47071831	      0.47948247	     -0.27223247	     10.13917052	    -20.89686487	     -0.36471910	      6.88598896	      2.76920054	     -4.14654427	    -23.52331772	     -3.20820042	      3.15920481	     -2.91915911	    -11.43839229	      0.83448380	     37.78854422	     89.95437384	      0.00000000	      0.00000000	     -5.51116684	      8.93247307	     -0.52436276	     20.95427109	     89.95437384	      0.00000000	      0.00000000
      1.63000000	     16.53756037	      1.68262376	      1.81728913	     -0.32033587	      0.94834897	     -1.44060110	    -23.37535103	      2.06814501	    -16.14621064	    -13.03241777	     -0.22745860	     12.55629946	     -2.63880737	     -4.45141074	      1.25837349	     -0.33544855	     10.89630557	    -20.26560183	     -0.35370148	      6.79905033	      2.70479439	     -4.10615431	    -23.37792316	     -3.14680032	      2.96638295	     -3.06122445	    -11.43154287	      0.83428933	     37.85474216	     89.95437384	      0.00000000	      0.00000000	     -5.92648189	      8.72927427	     -0.61112882	     20.77053319	     89.95437384	      0.00000000	      0.00000000
      1.64000000	     16.96054785	      2.18150761	      0.91804367	     -0.31218736	      0.94809236	     -1.43988014	    -24.26811820	      1.19146876	    -15.55271231	    -13.23748798	     -0.23103775	     12.97050378	     -2.51976770	     -4.51189927	      0.83335727	     -0.50676467	     15.01816888	    -18.83920809	     -0.32880621	      4.63617199	     -2.04854821	     -5.47679626	    -23.67613572	     -3.95213183	      3.74222904	     -3.32622365	    -11.49604834	      0.92273848	     37.95133064	     89.95437384	      0.00000000	      0.00000000	     -6.36932565	      8.48650457	     -0.76030357	     20.52882238	     89.95437384	      0.00000000	      0.00000000
      1.65000000	     16.76976638	      2.22150101	      1.19960343	     -0.30513189	      0.94685715	     -1.44049965	    -24.45432845	      1.25824567	    -15.59507540	    -13.43800538	     -0.23453744	     13.10699145	     -2.62386936	     -4.49322770	      1.56371414	     -0.63744175	     15.58948607	    -18.27602681	     -0.31897684	      4.62456569	     -2.03218189	     -5.42689213	    -23.50877786	     -3.88251938	      3.55278943	     -3.43204164	    -11.49047358	      0.92950512	     37.94504883	     89.95437384	      0.00000000	      0.00000000	     -6.75963525	      8.27616415	     -0.86183798	     20.31724294	     89.95437384	      0.00000000	      0.00000000
      1.66000000	     16.70934055	      2.92795015	      0.54426362	     -0.29780497	      0.94609960	     -1.44051357	    -24.60148739	      0.21275788	    -15.01493465	    -14.00218067	     -0.24438416	     13.61610152	     -3.15046830	     -4.52398491	      1.44737843	     -1.62269672	     17.12754507	    -16.44437175	     -0.28700843	      3.56991897	     -3.42509285	     -5.54586961	    -23.40945389	     -4.81223199	      3.96432648	     -3.40966326	    -11.50080272	      1.12899176	     37.63211555	     89.95437384	      0.00000000	      0.00000000	     -6.99561062	      8.02072714	     -1.06439701	     19.81182542	     89.95437384	      0.00000000	      0.00000000
      1.67000000	     16.98774197	      3.30309255	      0.08872763	     -0.28999870	      0.94562871	     -1.44066761	    -25.28853050	     -0.39423869	    -14.68398952	    -14.26168072	     -0.24891329	     13.82682984	     -3.29066516	     -4.58339627	      1.13820724	     -2.14205275	     18.96733721	    -15.16186182	     -0.26462441	      2.95810685	     -4.78309827	     -5.72096522	    -23.64017700	     -5.30713504	      4.31151141	     -3.59588748	    -11.59487290	      1.30012841	     37.64788297	     89.95437384	      0.00000000	      0.00000000	     -7.38565772	      7.73721797	     -1.05066250	     19.63581902	     89.95437384	      0.00000000	      0.00000000
      1.68000000	     16.83079407	      3.31171074	      0.28072050	     -0.28288143	      0.94450684	     -1.44129604	    -25.52874694	     -0.33555591	    -14.74164242	    -14.42197003	     -0.25171086	     13.97004940	     -3.36913128	     -4.57710667	      1.70092659	     -2.26213088	     19.53470448	    -14.70305494	     -0.25661672	      3.06355441	     -4.83954828	     -5.70071716	    -23.51996921	     -5.23311244	      4.20060770	     -3.64047717	    -11.59625765	      1.33156156	     37.56870957	     89.95437384	      0.00000000	      0.00000000	     -7.68688218	      7.50523200	     -1.13909759	     19.45641097	     89.95437384	      0.00000000	      0.00000000
